<?xml version="1.0" standalone="no"?>
<!DOCTYPE svg PUBLIC "-//W3C//DTD SVG 20010904//EN"
 "http://www.w3.org/TR/2001/REC-SVG-20010904/DTD/svg10.dtd">
<svg version="1.0" xmlns="http://www.w3.org/2000/svg"
 width="200.000000pt" height="200.000000pt" viewBox="0 0 200.000000 200.000000"
 preserveAspectRatio="xMidYMid meet">
<metadata>
Created by potrace 1.11, written by Peter Selinger 2001-2013
</metadata>
<g transform="translate(0.000000,200.000000) scale(0.100000,-0.100000)"
fill="#000000" stroke="none">
<path d="M968 1756 c3 -5 -3 -6 -14 -2 -10 4 -15 4 -11 0 4 -4 1 -14 -6 -23
-10 -14 -10 -14 5 -3 14 12 16 11 11 -8 -3 -11 -8 -18 -11 -15 -3 2 -11 0 -19
-7 -11 -8 -17 -8 -26 2 -9 10 -9 11 1 6 17 -10 15 4 -5 26 -15 17 -17 17 -35
1 -15 -13 -21 -14 -31 -4 -9 10 -9 11 4 6 10 -4 19 0 22 8 8 21 -20 16 -40 -6
-13 -15 -14 -18 -3 -12 13 8 13 6 1 -8 -12 -15 -31 -15 -31 -1 0 3 5 2 12 -2
7 -4 8 -3 4 5 -9 14 -29 4 -23 -12 6 -18 -33 -56 -51 -50 -11 5 -14 2 -10 -8
3 -9 -3 -26 -14 -40 -11 -13 -16 -18 -12 -10 5 10 3 12 -5 7 -7 -5 -10 -15 -6
-23 5 -14 3 -14 -12 -2 -10 7 -15 10 -11 5 9 -10 -11 -66 -24 -66 -6 0 -4 8 3
18 12 15 11 15 -8 -1 -12 -10 -20 -26 -18 -36 3 -18 -29 -64 -39 -54 -3 3 -9
-8 -12 -26 -5 -23 -9 -29 -15 -19 -5 7 -9 8 -9 2 0 -7 -18 -10 -48 -9 -158 7
-313 -100 -400 -276 -23 -48 -42 -95 -42 -106 0 -11 -3 -23 -7 -27 -5 -4 -9
-20 -9 -34 -1 -15 -3 -27 -4 -27 -5 0 -10 -48 -13 -122 -2 -45 0 -80 5 -77 5
3 7 -6 4 -20 -5 -28 10 -45 37 -41 13 3 15 0 8 -9 -7 -8 -5 -12 9 -12 10 0 16
5 13 10 -4 5 1 7 12 2 14 -5 16 -4 6 7 -8 11 -7 18 8 31 14 13 21 14 27 5 5
-8 3 -10 -6 -4 -9 5 -11 4 -6 -4 13 -21 27 -1 14 22 -10 20 -10 21 6 8 12 -10
20 -11 27 -4 8 8 7 13 -2 18 -8 6 -10 4 -4 -5 5 -9 4 -11 -3 -6 -15 9 -15 11
5 27 11 10 14 10 9 2 -4 -7 -2 -13 3 -13 6 0 11 9 11 20 0 11 7 20 15 20 8 0
14 3 14 8 -4 21 3 30 26 36 14 4 23 11 20 16 -3 6 -2 10 4 10 5 0 8 11 7 25
-2 14 4 31 12 37 13 10 14 10 8 1 -4 -7 -2 -13 3 -13 6 0 11 7 11 15 0 8 -5
15 -12 15 -6 0 -8 3 -5 6 4 4 14 1 23 -7 16 -13 16 -12 4 11 -12 23 -12 24 4
11 9 -8 19 -11 23 -7 3 3 1 6 -5 6 -7 0 -12 7 -12 15 0 8 5 15 11 15 5 0 7 -5
3 -12 -5 -7 -3 -8 5 -3 9 5 10 10 2 18 -18 18 -13 31 6 16 11 -10 14 -10 9 -1
-4 6 -2 12 3 12 6 0 11 5 11 11 0 5 -4 8 -9 4 -5 -3 -13 0 -17 7 -4 7 -4 10 1
6 4 -4 15 -2 23 5 11 8 14 8 9 0 -4 -6 -3 -14 2 -17 5 -4 8 2 7 11 -2 9 -8 19
-14 21 -8 2 -3 11 10 23 20 16 21 20 8 30 -13 9 -13 10 0 6 8 -2 23 6 33 17
18 20 18 20 1 -9 l-18 -30 25 25 c21 22 22 27 9 38 -13 12 -13 13 2 8 12 -3
16 0 13 14 -2 11 1 23 7 26 7 4 8 2 4 -4 -4 -7 -2 -12 3 -12 15 0 14 23 -1 39
-11 10 -8 10 13 3 20 -8 26 -7 26 3 0 8 -4 12 -9 9 -4 -3 -8 0 -8 7 0 7 8 9
21 6 16 -4 18 -3 8 9 -6 7 -16 11 -23 8 -6 -3 3 8 21 24 17 17 29 32 27 35 -2
2 9 4 26 3 16 -1 30 -4 30 -8 0 -4 10 -12 21 -19 15 -7 19 -8 15 0 -5 7 -1 9
8 5 9 -3 16 -13 16 -21 0 -8 5 -11 10 -8 6 3 10 1 10 -6 0 -7 2 -10 5 -7 6 6
69 -52 95 -86 14 -18 13 -19 -4 -13 -16 6 -17 5 -6 -8 11 -13 11 -18 0 -28
-10 -10 -11 -9 -5 3 5 8 4 11 0 7 -12 -10 -15 -38 -4 -31 5 3 9 1 9 -4 0 -6
-8 -13 -17 -16 -12 -5 -14 -9 -5 -18 9 -9 7 -17 -6 -32 -9 -11 -11 -16 -4 -12
18 11 15 -5 -5 -21 -10 -8 -12 -12 -5 -8 6 3 12 2 12 -4 0 -5 -6 -12 -12 -14
-10 -4 -10 -8 0 -15 11 -7 11 -10 -2 -15 -9 -4 -13 -13 -10 -21 3 -8 1 -17 -5
-21 -6 -3 -11 -12 -11 -18 0 -7 4 -6 10 3 8 12 9 10 7 -7 -2 -12 -7 -26 -12
-30 -4 -5 -5 -2 0 6 5 10 4 12 -4 7 -6 -4 -8 -13 -4 -19 10 -17 11 -47 1 -47
-5 0 -7 -3 -4 -8 2 -4 -8 -44 -24 -89 -15 -45 -25 -84 -22 -88 3 -3 0 -5 -6
-5 -7 0 -11 -3 -10 -7 1 -5 -5 -28 -12 -53 -7 -25 -13 -51 -11 -58 1 -6 -3
-12 -9 -12 -6 0 -10 -10 -9 -22 1 -13 -1 -31 -5 -40 -4 -9 -9 -25 -11 -35 -2
-10 -4 -19 -5 -20 -2 -2 -4 -7 -5 -13 -1 -5 -3 -11 -5 -12 -1 -2 -3 -10 -5
-18 -7 -35 -10 -45 -15 -50 -11 -10 -38 -110 -30 -110 4 0 10 -13 13 -30 4
-16 11 -30 17 -30 6 0 8 6 5 13 -4 6 -1 5 7 -3 18 -20 39 -24 31 -5 -4 13 -1
14 20 6 24 -9 44 0 46 22 1 4 3 6 6 5 9 -5 33 36 28 49 -3 7 5 17 18 22 13 5
19 10 13 10 -6 1 -11 8 -11 15 0 11 5 13 19 5 10 -5 18 -6 17 -2 -3 20 2 34
10 28 5 -3 13 0 17 6 4 8 3 9 -4 5 -7 -4 -12 -2 -12 3 0 6 5 11 10 11 6 0 10
4 10 10 0 5 -8 7 -17 4 -17 -5 -17 -5 0 6 9 6 14 16 11 22 -5 7 -1 9 9 5 9 -3
19 -1 23 5 5 7 2 8 -7 4 -8 -4 -3 2 11 14 16 14 19 20 8 16 -10 -3 -20 -1 -23
5 -4 5 -3 9 2 8 4 -1 15 -1 23 0 13 1 13 2 0 12 -12 9 -10 10 8 6 19 -5 21 -3
11 9 -6 7 -16 11 -23 7 -6 -4 -5 1 3 10 15 18 26 23 16 7 -3 -5 0 -7 7 -5 8 3
15 15 15 28 2 18 0 19 -8 7 -9 -13 -10 -13 -6 0 2 8 12 13 22 12 15 -3 17 -1
8 10 -8 10 -9 18 -1 28 8 12 9 12 4 -3 -4 -11 -2 -16 5 -11 6 3 9 15 6 25 -3
10 -1 22 4 25 6 3 5 12 -3 22 -8 11 -5 10 10 -3 l23 -19 -10 26 c-8 22 -7 26
3 22 10 -4 13 6 12 40 -1 24 2 42 6 40 4 -3 7 6 6 18 -2 40 2 49 15 43 6 -4 3
1 -7 9 -18 15 -15 20 9 17 6 -1 1 6 -9 14 -16 12 -17 15 -4 15 11 0 14 7 10
25 -2 14 -8 23 -12 20 -9 -6 -6 37 4 53 3 6 1 14 -5 18 -8 5 -9 3 -4 -6 5 -8
4 -11 -2 -7 -5 3 -8 20 -5 37 2 17 0 30 -6 30 -6 0 -8 10 -4 22 4 15 2 19 -7
14 -8 -5 -11 -3 -10 5 2 14 -4 33 -26 84 -8 16 -11 33 -9 37 3 4 -2 8 -11 8
-9 0 -13 5 -10 10 4 6 10 8 15 5 4 -3 10 2 13 10 4 10 1 12 -11 8 -15 -6 -15
-5 -3 10 7 9 18 14 25 10 6 -4 4 1 -4 11 -16 21 -23 49 -9 40 5 -3 6 -11 3
-17 -4 -7 -3 -9 1 -4 15 13 13 48 -2 43 -23 -9 -14 3 15 19 15 9 19 14 10 11
-10 -3 -20 -1 -23 4 -4 6 1 10 9 10 10 0 13 6 10 15 -4 8 -1 22 5 29 10 11 8
17 -6 26 -16 10 -15 11 6 6 18 -4 21 -2 12 7 -18 18 -13 31 7 16 14 -11 15
-11 5 1 -7 8 -13 29 -13 47 0 20 5 33 13 33 7 0 8 3 2 8 -12 8 -15 52 -4 52 4
0 6 8 4 18 -1 9 -8 16 -15 14 -6 -1 -9 2 -5 8 3 6 10 8 15 5 4 -3 10 -2 13 2
2 5 2 2 1 -4 -2 -7 1 -13 6 -13 11 0 9 -28 -4 -49 -7 -11 -5 -13 6 -9 8 4 15
0 15 -8 0 -7 -5 -11 -11 -8 -6 3 -3 -1 7 -9 17 -14 24 -33 9 -23 -5 3 -9 -1
-9 -9 0 -8 4 -12 8 -10 4 3 10 -2 13 -11 4 -10 2 -13 -7 -9 -6 4 -4 0 6 -8 18
-15 24 -32 7 -22 -6 3 -7 -1 -4 -9 3 -9 9 -14 14 -11 4 2 6 -7 4 -20 -1 -14 2
-25 7 -25 5 0 9 -14 9 -31 0 -20 4 -28 12 -23 8 5 9 2 5 -9 -3 -9 0 -23 8 -31
17 -17 20 -30 5 -21 -6 3 -7 -1 -4 -9 3 -9 -3 -35 -15 -58 -92 -192 -63 -470
68 -648 58 -79 155 -165 174 -153 6 3 7 1 3 -5 -3 -6 3 -16 15 -22 17 -10 20
-9 13 2 -7 11 -5 11 9 0 9 -8 21 -11 27 -7 6 4 9 2 8 -3 -3 -9 2 -12 17 -12 3
0 1 9 -4 19 -9 17 -8 18 12 14 22 -5 22 -5 2 12 -17 14 -17 16 -2 11 9 -3 17
-1 17 4 0 6 -5 10 -12 10 -6 0 -8 3 -5 7 4 3 1 13 -6 21 -8 10 -8 13 -1 9 7
-4 14 0 17 8 4 9 1 12 -9 8 -10 -4 -12 0 -8 11 3 9 2 16 -3 16 -5 0 -8 16 -7
35 2 23 0 33 -7 29 -8 -4 -9 1 -4 16 6 19 4 22 -11 16 -18 -6 -18 -5 0 9 11 8
15 15 9 15 -6 0 -10 8 -10 18 0 27 -14 62 -25 62 -6 0 -4 8 3 17 10 11 10 14
2 9 -7 -4 -13 -2 -13 3 0 20 -2 26 -12 38 -5 7 -7 17 -3 23 3 5 -2 10 -12 10
-15 0 -16 2 -3 10 10 6 11 10 3 10 -7 0 -13 9 -13 19 0 10 -7 21 -15 25 -8 3
-12 12 -9 21 4 8 0 23 -7 32 -10 12 -10 15 -1 9 12 -7 -19 55 -40 82 -7 8 -6
12 3 12 9 0 10 3 3 8 -5 4 -16 22 -23 39 -7 18 -18 30 -23 27 -6 -4 -6 0 0 12
7 14 6 25 -4 38 -7 10 -11 24 -7 29 4 6 0 8 -8 5 -12 -5 -15 2 -13 28 3 26 -1
34 -14 34 -14 0 -15 2 -2 9 8 6 18 7 24 4 5 -3 6 -1 2 6 -4 6 -13 8 -19 5 -9
-5 -9 -3 0 6 10 11 15 11 29 -1 10 -8 15 -9 11 -2 -4 6 -2 13 5 15 9 3 9 6 0
12 -7 4 -12 2 -12 -4 0 -6 -5 -8 -10 -5 -11 7 12 35 29 35 5 0 18 13 27 30 15
24 21 27 33 17 9 -6 13 -8 9 -3 -8 10 15 36 33 36 8 0 6 -6 -4 -18 -14 -15
-14 -19 -3 -19 8 0 15 3 14 6 0 3 1 9 2 14 1 4 3 12 4 17 0 6 5 10 9 9 5 0 15
8 23 18 12 17 13 16 9 -5 -3 -18 -1 -21 8 -13 9 7 17 7 27 -1 12 -8 11 -9 -5
-4 -19 6 -19 5 -2 -8 9 -7 17 -19 17 -25 0 -7 5 -9 10 -6 6 3 10 -1 10 -10 0
-8 10 -20 23 -25 13 -5 16 -9 7 -10 -13 0 -13 -2 0 -9 8 -6 18 -7 24 -4 5 3 6
1 2 -5 -8 -13 50 -83 66 -79 6 1 13 -5 15 -13 4 -13 3 -13 -7 0 -10 13 -11 13
-8 0 3 -8 15 -17 29 -21 13 -4 21 -7 18 -8 -4 -1 11 -20 32 -43 22 -24 39 -46
39 -50 0 -10 92 -132 102 -136 5 -2 6 -8 2 -13 -3 -5 -1 -9 5 -9 5 0 13 -9 16
-20 4 -11 10 -18 15 -15 5 3 11 -3 14 -12 4 -10 19 -32 34 -49 15 -17 43 -57
62 -88 19 -31 43 -59 53 -62 9 -3 14 -10 11 -16 -4 -6 -2 -8 4 -4 6 3 13 2 17
-4 8 -13 25 -13 25 1 0 5 -6 7 -12 3 -9 -5 -9 -2 1 9 7 9 19 17 25 17 6 0 5
-4 -3 -9 -9 -6 -10 -11 -2 -15 12 -8 13 -6 15 86 0 38 -3 66 -9 65 -5 -1 -10
17 -10 41 0 26 -5 42 -12 42 -8 0 -11 11 -9 30 3 26 1 29 -12 18 -13 -12 -14
-10 -3 11 8 15 9 21 2 17 -7 -5 -11 2 -11 18 0 16 -6 26 -15 26 -8 0 -15 5
-15 11 0 5 6 7 13 3 9 -5 9 -4 0 6 -6 7 -9 20 -5 29 5 14 4 14 -13 1 -11 -9
-16 -10 -11 -2 4 7 2 12 -6 12 -9 0 -9 3 2 10 14 9 7 14 -13 11 -5 -1 -6 3 -3
8 4 5 -2 24 -13 42 -11 18 -17 37 -14 42 3 6 1 7 -5 3 -12 -7 -16 5 -13 33 2
7 -2 10 -8 7 -6 -4 -13 5 -17 19 -3 14 -10 25 -15 25 -5 0 -9 7 -9 15 0 8 -9
20 -20 27 -11 7 -20 17 -20 21 0 5 -14 23 -32 40 -18 18 -28 26 -24 19 7 -11
4 -12 -13 -3 -11 7 -21 14 -21 17 0 3 6 2 13 -2 8 -5 9 -4 2 4 -29 32 -161 59
-303 62 -7 0 -11 3 -9 8 4 9 -40 52 -47 44 -3 -3 -6 0 -6 6 0 17 -42 62 -52
56 -5 -3 -7 0 -6 7 2 7 -2 13 -9 14 -6 0 -15 4 -20 9 -5 5 -3 6 5 2 6 -4 12
-2 12 5 0 7 -8 9 -21 6 -14 -4 -18 -2 -11 6 11 16 -32 59 -46 45 -6 -6 -12 -3
-16 7 -4 11 -2 14 7 9 6 -4 1 5 -12 19 -19 21 -27 24 -38 15 -8 -6 -13 -7 -12
-2 4 21 -2 31 -27 42 -14 7 -23 9 -21 4 3 -4 -8 -8 -25 -9 -20 0 -26 2 -17 7
7 5 17 6 21 4 4 -3 8 -1 8 4 0 6 -11 9 -24 8 -13 0 -22 -5 -18 -10z m136 -62
c3 -8 2 -12 -4 -9 -6 3 -10 10 -10 16 0 14 7 11 14 -7z m-160 -20 c3 -8 2 -12
-4 -9 -6 3 -10 10 -10 16 0 14 7 11 14 -7z m-14 -30 c0 -8 -4 -14 -8 -14 -4 0
-8 9 -8 19 0 11 4 17 8 15 4 -3 8 -12 8 -20z m238 -19 c-3 -3 -9 2 -12 12 -6
14 -5 15 5 6 7 -7 10 -15 7 -18z m-443 -335 c3 -6 -1 -7 -9 -4 -18 7 -21 14
-7 14 6 0 13 -4 16 -10z m45 -45 c13 -14 21 -25 18 -25 -2 0 -15 11 -28 25
-13 14 -21 25 -18 25 2 0 15 -11 28 -25z m691 -12 c13 -16 12 -17 -3 -4 -17
13 -22 21 -14 21 2 0 10 -8 17 -17z m-1203 -378 c-6 -14 -13 -23 -15 -21 -3 2
0 13 6 24 6 11 7 23 3 27 -4 5 -2 5 5 1 9 -5 10 -13 1 -31z m1062 -229 c0 -3
-4 -8 -10 -11 -5 -3 -10 -1 -10 4 0 6 5 11 10 11 6 0 10 -2 10 -4z m-636 -448
c-3 -5 -9 -6 -14 -3 -7 4 -22 -18 -24 -37 -2 -17 -14 -17 -19 2 -3 11 -1 18 3
15 5 -3 13 3 19 13 5 10 17 19 25 19 8 0 13 -4 10 -9z"/>
<path d="M735 1680 c-3 -5 -1 -10 4 -10 6 0 11 5 11 10 0 6 -2 10 -4 10 -3 0
-8 -4 -11 -10z"/>
<path d="M579 1473 c-13 -16 -12 -17 4 -4 9 7 17 15 17 17 0 8 -8 3 -21 -13z"/>
<path d="M529 1293 c-8 -9 -8 -13 0 -13 6 0 11 5 11 11 0 5 4 8 9 4 5 -3 12
-2 15 3 9 14 -23 10 -35 -5z"/>
<path d="M1160 1280 c-8 -5 -10 -10 -5 -10 6 0 17 5 25 10 8 5 11 10 5 10 -5
0 -17 -5 -25 -10z"/>
<path d="M402 1075 c-7 -8 -9 -15 -4 -15 5 0 15 7 22 15 16 19 -1 19 -18 0z"/>
<path d="M286 887 c3 -10 9 -15 12 -12 3 3 0 11 -7 18 -10 9 -11 8 -5 -6z"/>
<path d="M944 726 c1 -8 5 -18 8 -22 4 -3 5 1 4 10 -1 8 -5 18 -8 22 -4 3 -5
-1 -4 -10z"/>
<path d="M106 681 c-3 -5 1 -11 9 -14 9 -4 12 -1 8 9 -6 16 -10 17 -17 5z"/>
<path d="M706 198 c3 -5 10 -6 15 -3 13 9 11 12 -6 12 -8 0 -12 -4 -9 -9z"/>
</g>
</svg>
